<svg id="Layer_1" data-name="Layer 1" xmlns="http://www.w3.org/2000/svg" xmlns:xlink="http://www.w3.org/1999/xlink" viewBox="0 0 983.25 1242.25"><defs><style>.cls-1{fill:none;}.cls-2{fill:#fff;}.cls-3{clip-path:url(#clip-path);}.cls-4{fill:#fff;}.cls-5{fill:#fff;}</style><clipPath id="clip-path" transform="translate(0 0)"><rect class="cls-1" width="983.25" height="1242.25"/></clipPath></defs><title>Vector Smart Object</title><path class="cls-2" d="M752.35,791.3V983.57L627.64,1085v45.5l160-130.19V757.77ZM230.1,983.57V790.35l-35.29-33.52v243.52L356.4,1131.83v-45.49Z" transform="translate(0 0)"/><g class="cls-3"><path class="cls-2" d="M169.63,279.72c66.07-7.78,72-82.79,72-82.79s-73.46,16.28-72,82.79" transform="translate(0 0)"/><path class="cls-2" d="M105.77,359.62c47.74-46.33,6.87-109.5,6.87-109.5s-48.45,57.57-6.87,109.5" transform="translate(0 0)"/><path class="cls-2" d="M126.32,370.09c65.3,12.71,93.78-56.94,93.78-56.94s-74.93-6.85-93.78,56.94" transform="translate(0 0)"/><path class="cls-2" d="M80.61,445.91c26.28-61.11-35.73-103.74-35.73-103.74S22.27,413.93,80.61,445.91" transform="translate(0 0)"/><path class="cls-2" d="M97.12,450.54c65.8,9.8,91.17-61,91.17-61s-75.16-3.53-91.17,61" transform="translate(0 0)"/><path class="cls-2" d="M55.91,531.45c20.84-63.18-44.66-100.21-44.66-100.21S-5,504.71,55.91,531.45" transform="translate(0 0)"/><path class="cls-2" d="M72.62,534.67c65.6,11,92.3-59.32,92.3-59.32s-75.09-4.94-92.3,59.32" transform="translate(0 0)"/><path class="cls-2" d="M90.9,621.74C75.18,557.1,0,560.3,0,560.3s25.06,71,90.9,61.44" transform="translate(0 0)"/><path class="cls-2" d="M106.88,617.51c65.53-11.41,67.32-86.64,67.32-86.64s-72.46,20.31-67.32,86.64" transform="translate(0 0)"/><path class="cls-2" d="M126.14,692.55C96.93,632.78,24.18,652,24.18,652s39.69,63.93,102,40.53" transform="translate(0 0)"/><path class="cls-2" d="M144.52,685.44C207.8,664.9,199,590.17,199,590.17s-68.86,30.33-54.43,95.27" transform="translate(0 0)"/><path class="cls-2" d="M813.62,279.72c-66.07-7.78-72-82.79-72-82.79s73.46,16.28,72,82.79" transform="translate(0 0)"/><path class="cls-2" d="M877.47,359.62c-47.74-46.33-6.86-109.5-6.86-109.5s48.44,57.57,6.86,109.5" transform="translate(0 0)"/><path class="cls-2" d="M856.93,370.09c-65.3,12.71-93.79-56.94-93.79-56.94s74.94-6.85,93.79,56.94" transform="translate(0 0)"/><path class="cls-2" d="M902.64,445.91c-26.28-61.11,35.72-103.74,35.72-103.74S961,413.93,902.64,445.91" transform="translate(0 0)"/><path class="cls-2" d="M886.13,450.54c-65.8,9.8-91.17-61-91.17-61s75.16-3.53,91.17,61" transform="translate(0 0)"/><path class="cls-2" d="M927.33,531.45C906.5,468.27,972,431.24,972,431.24s16.25,73.47-44.67,100.21" transform="translate(0 0)"/><path class="cls-2" d="M910.63,534.67c-65.61,11-92.3-59.32-92.3-59.32s75.08-4.94,92.3,59.32" transform="translate(0 0)"/><path class="cls-2" d="M892.35,621.74c15.72-64.64,90.9-61.44,90.9-61.44s-25.06,71-90.9,61.44" transform="translate(0 0)"/><path class="cls-2" d="M876.37,617.51c-65.54-11.41-67.32-86.64-67.32-86.64s72.45,20.31,67.32,86.64" transform="translate(0 0)"/><path class="cls-2" d="M857.11,692.55C886.32,632.78,959.06,652,959.06,652S919.38,716,857.11,692.55" transform="translate(0 0)"/><path class="cls-2" d="M838.72,685.44c-63.27-20.54-54.43-95.27-54.43-95.27s68.87,30.33,54.43,95.27" transform="translate(0 0)"/><polygon class="cls-4" points="787.78 696.02 592.77 696.02 540.01 696.02 523.55 696.02 523.55 1134.54 491.99 1160.04 491.99 1160.14 460.4 1134.62 460.4 696.02 443.14 696.02 391.17 696.02 195.38 696.02 264.6 765.25 264.88 765.25 264.88 960.31 334.1 1016.39 334.1 765.26 334.09 765.25 391.17 765.25 391.17 1160.81 491.99 1242.25 592.77 1160.81 592.77 765.25 649.85 765.25 649.84 765.26 649.84 1016.39 719.07 960.31 719.07 764.74 787.78 696.02"/><rect class="cls-4" x="297.42" y="792.74" width="387.11" height="69.23"/><path class="cls-5" d="M629.62,73.24s4.93,166.63-118.72,288.93L508,365.06c2.8-46.67,12.13-93.57,18.19-116.87C555.91,134,505.45,0,505.45,0s4.93,166.63-118.72,288.93-88.07,294.84-88.07,294.84c3-39.73,26.88-92.09,79.65-153.35C379.14,536.88,422.83,657,422.83,657c4.36-57.4,62.55-130.18,167.9-240C731,270.66,629.62,73.24,629.62,73.24" transform="translate(0 0)"/><path class="cls-5" d="M422.83,657s53-113.89,177.56-190.86c0,0-130.3,5.7-198.37,75.37Z" transform="translate(0 0)"/><path class="cls-5" d="M368.74,217.32s29.19-18.48,39.71-57.35c0,0,8.62,29.39-9.3,46.16-14.81,13.85-30.41,11.19-30.41,11.19" transform="translate(0 0)"/><path class="cls-5" d="M370.63,306.14s79.68-97.56,71-169.95c0,0,51.93,104.52,8.4,175.49Z" transform="translate(0 0)"/></g></svg>